<!-- Generated by IcoMoon.io -->
<svg version="1.1" xmlns="http://www.w3.org/2000/svg" width="512" height="512" viewBox="0 0 512 512">
<title></title>
<g id="icomoon-ignore">
</g>
<path fill="#727080" d="M256 160c-17.6 0-32 14.4-32 32v128c0 52.9-43.1 96-96 96s-96-43.1-96-96v-64h64v64c0 17.6 14.4 32 32 32s32-14.4 32-32v-128c0-52.9 43.1-96 96-96s96 43.1 96 89v31l-41 12-23-12v-31c0-10.6-14.4-25-32-25z">
</path>
<path fill="#727080" d="M480 320c0 52.9-43.1 96-96 96s-96-43.1-96-103v-62l23 12 41-12v62c0 24.6 14.4 39 32 39s32-14.4 32-32v-64h64v64z"></path>
</svg>
